<svg xmlns="http://www.w3.org/2000/svg" xmlns:xlink="http://www.w3.org/1999/xlink" width="200" zoomAndPan="magnify" viewBox="0 0 150 30.000001" height="40" preserveAspectRatio="xMidYMid meet" version="1.0"><defs><g/><clipPath id="30098acb9b"><path d="M 5.324219 4.777344 L 37.984375 4.777344 L 37.984375 24.375 L 5.324219 24.375 Z M 5.324219 4.777344 " clip-rule="nonzero"/></clipPath></defs><g clip-path="url(#30098acb9b)"><path fill="#5271ff" d="M 30.402344 13.496094 L 37.84375 23.59375 C 37.984375 23.785156 37.847656 24.050781 37.613281 24.050781 L 33.316406 24.050781 C 33.226562 24.050781 33.140625 24.003906 33.085938 23.933594 L 27.660156 16.480469 C 27.558594 16.335938 27.347656 16.320312 27.226562 16.449219 L 22.808594 20.992188 C 22.320312 21.515625 21.8125 21.984375 21.292969 22.398438 C 20.769531 22.8125 20.195312 23.171875 19.574219 23.46875 C 18.949219 23.765625 18.269531 23.992188 17.53125 24.144531 C 16.789062 24.296875 15.960938 24.375 15.039062 24.375 C 13.648438 24.375 12.359375 24.121094 11.167969 23.617188 C 9.980469 23.113281 8.949219 22.421875 8.085938 21.546875 C 7.21875 20.671875 6.542969 19.636719 6.054688 18.445312 C 5.566406 17.253906 5.324219 15.984375 5.324219 14.628906 L 5.324219 14.574219 C 5.324219 13.222656 5.566406 11.957031 6.054688 10.773438 C 6.542969 9.589844 7.21875 8.554688 8.085938 7.660156 C 8.949219 6.765625 9.988281 6.0625 11.195312 5.550781 C 12.40625 5.035156 13.742188 4.777344 15.203125 4.777344 C 16.085938 4.777344 16.894531 4.851562 17.625 4.996094 C 18.355469 5.140625 19.019531 5.335938 19.613281 5.589844 C 20.023438 5.765625 20.414062 5.964844 20.78125 6.191406 C 20.894531 6.261719 21.046875 6.246094 21.140625 6.148438 L 21.890625 5.351562 C 21.945312 5.296875 22.019531 5.261719 22.097656 5.261719 L 26.636719 5.261719 C 26.890625 5.261719 27.019531 5.5625 26.84375 5.746094 L 20.558594 12.289062 C 20.503906 12.34375 20.425781 12.378906 20.347656 12.375 L 15.996094 12.28125 C 15.746094 12.277344 15.625 11.980469 15.792969 11.800781 L 17.839844 9.636719 C 17.96875 9.5 17.929688 9.273438 17.761719 9.191406 L 17.757812 9.191406 C 16.992188 8.8125 16.132812 8.621094 15.175781 8.621094 C 14.378906 8.621094 13.644531 8.773438 12.96875 9.082031 C 12.292969 9.386719 11.710938 9.8125 11.222656 10.355469 C 10.738281 10.894531 10.359375 11.523438 10.085938 12.234375 C 9.816406 12.949219 9.679688 13.710938 9.679688 14.523438 L 9.679688 14.574219 C 9.679688 15.386719 9.816406 16.15625 10.085938 16.875 C 10.359375 17.597656 10.730469 18.230469 11.210938 18.773438 C 11.6875 19.3125 12.265625 19.742188 12.941406 20.058594 C 13.617188 20.375 14.363281 20.53125 15.175781 20.53125 C 16.257812 20.53125 17.171875 20.332031 17.921875 19.9375 C 18.671875 19.539062 19.414062 18.996094 20.15625 18.3125 L 32.554688 5.351562 C 32.609375 5.292969 32.683594 5.261719 32.761719 5.261719 L 37.304688 5.261719 C 37.554688 5.261719 37.683594 5.5625 37.511719 5.746094 L 30.425781 13.128906 C 30.328125 13.230469 30.320312 13.382812 30.402344 13.496094 " fill-opacity="1" fill-rule="nonzero"/></g><g fill="#004aad" fill-opacity="1"><g transform="translate(42.13829, 20.163459)"><g><path d="M 5.734375 -10.15625 C 6.472656 -10.15625 7.203125 -10 7.921875 -9.6875 C 8.648438 -9.382812 9.269531 -8.976562 9.78125 -8.46875 L 8.296875 -6.703125 C 7.972656 -7.109375 7.582031 -7.425781 7.125 -7.65625 C 6.675781 -7.894531 6.222656 -8.015625 5.765625 -8.015625 C 4.972656 -8.015625 4.304688 -7.734375 3.765625 -7.171875 C 3.234375 -6.609375 2.96875 -5.914062 2.96875 -5.09375 C 2.96875 -4.25 3.234375 -3.539062 3.765625 -2.96875 C 4.304688 -2.40625 4.972656 -2.125 5.765625 -2.125 C 6.191406 -2.125 6.628906 -2.226562 7.078125 -2.4375 C 7.535156 -2.65625 7.941406 -2.945312 8.296875 -3.3125 L 9.796875 -1.734375 C 9.253906 -1.171875 8.609375 -0.722656 7.859375 -0.390625 C 7.117188 -0.0546875 6.378906 0.109375 5.640625 0.109375 C 4.128906 0.109375 2.867188 -0.378906 1.859375 -1.359375 C 0.847656 -2.347656 0.34375 -3.582031 0.34375 -5.0625 C 0.34375 -6.507812 0.851562 -7.71875 1.875 -8.6875 C 2.90625 -9.664062 4.191406 -10.15625 5.734375 -10.15625 Z M 5.734375 -10.15625 "/></g></g></g><g fill="#004aad" fill-opacity="1"><g transform="translate(52.911532, 20.163459)"><g><path d="M 10.296875 0 L 7.75 0 L 7.75 -3.921875 L 3.5625 -3.921875 L 3.5625 0 L 1 0 L 1 -10.078125 L 3.5625 -10.078125 L 3.5625 -5.921875 L 7.75 -5.921875 L 7.75 -10.078125 L 10.296875 -10.078125 Z M 10.296875 0 "/></g></g></g><g fill="#004aad" fill-opacity="1"><g transform="translate(65.036792, 20.163459)"><g><path d="M 8.890625 -8.0625 L 3.5625 -8.0625 L 3.5625 -6.0625 L 8.375 -6.0625 L 8.375 -4.046875 L 3.5625 -4.046875 L 3.5625 -2.015625 L 9.046875 -2.015625 L 9.046875 0 L 1 0 L 1 -10.078125 L 8.890625 -10.078125 Z M 8.890625 -8.0625 "/></g></g></g><g fill="#004aad" fill-opacity="1"><g transform="translate(75.551139, 20.163459)"><g><path d="M 5.734375 -10.15625 C 6.472656 -10.15625 7.203125 -10 7.921875 -9.6875 C 8.648438 -9.382812 9.269531 -8.976562 9.78125 -8.46875 L 8.296875 -6.703125 C 7.972656 -7.109375 7.582031 -7.425781 7.125 -7.65625 C 6.675781 -7.894531 6.222656 -8.015625 5.765625 -8.015625 C 4.972656 -8.015625 4.304688 -7.734375 3.765625 -7.171875 C 3.234375 -6.609375 2.96875 -5.914062 2.96875 -5.09375 C 2.96875 -4.25 3.234375 -3.539062 3.765625 -2.96875 C 4.304688 -2.40625 4.972656 -2.125 5.765625 -2.125 C 6.191406 -2.125 6.628906 -2.226562 7.078125 -2.4375 C 7.535156 -2.65625 7.941406 -2.945312 8.296875 -3.3125 L 9.796875 -1.734375 C 9.253906 -1.171875 8.609375 -0.722656 7.859375 -0.390625 C 7.117188 -0.0546875 6.378906 0.109375 5.640625 0.109375 C 4.128906 0.109375 2.867188 -0.378906 1.859375 -1.359375 C 0.847656 -2.347656 0.34375 -3.582031 0.34375 -5.0625 C 0.34375 -6.507812 0.851562 -7.71875 1.875 -8.6875 C 2.90625 -9.664062 4.191406 -10.15625 5.734375 -10.15625 Z M 5.734375 -10.15625 "/></g></g></g><g fill="#004aad" fill-opacity="1"><g transform="translate(86.324381, 20.163459)"><g><path d="M 7.5625 0 L 4.90625 -3.953125 L 3.5625 -2.46875 L 3.5625 0 L 1 0 L 1 -10.078125 L 3.5625 -10.078125 L 3.5625 -5.71875 L 7.421875 -10.078125 L 10.390625 -10.078125 L 6.65625 -5.90625 L 10.640625 0 Z M 7.5625 0 "/></g></g></g><g fill="#004aad" fill-opacity="1"><g transform="translate(97.888699, 20.163459)"><g/></g></g><g fill="#004aad" fill-opacity="1"><g transform="translate(102.045702, 20.163459)"><g><path d="M 7.5625 0 L 4.90625 -3.953125 L 3.5625 -2.46875 L 3.5625 0 L 1 0 L 1 -10.078125 L 3.5625 -10.078125 L 3.5625 -5.71875 L 7.421875 -10.078125 L 10.390625 -10.078125 L 6.65625 -5.90625 L 10.640625 0 Z M 7.5625 0 "/></g></g></g><g fill="#004aad" fill-opacity="1"><g transform="translate(113.61002, 20.163459)"><g><path d="M 12.328125 0 L 9.703125 0 L 7.828125 -6.96875 L 5.921875 0 L 3.28125 0 L -0.015625 -10.078125 L 2.71875 -10.078125 L 4.6875 -2.65625 L 6.625 -10.078125 L 9.125 -10.078125 L 11.09375 -2.65625 L 13.03125 -10.078125 L 15.65625 -10.078125 Z M 12.328125 0 "/></g></g></g><g fill="#004aad" fill-opacity="1"><g transform="translate(129.978305, 20.163459)"><g><path d="M 3.5625 0 L 1 0 L 1 -10.078125 L 3.5625 -10.078125 Z M 3.5625 0 "/></g></g></g><g fill="#004aad" fill-opacity="1"><g transform="translate(135.372257, 20.163459)"><g><path d="M 7.5625 0 L 4.90625 -3.953125 L 3.5625 -2.46875 L 3.5625 0 L 1 0 L 1 -10.078125 L 3.5625 -10.078125 L 3.5625 -5.71875 L 7.421875 -10.078125 L 10.390625 -10.078125 L 6.65625 -5.90625 L 10.640625 0 Z M 7.5625 0 "/></g></g></g></svg>